Hanif_Shallow_7_5_grf.mot
version=1
nRows=26
nColumns=19
inDegrees=yes
endheader
time	right_ground_force_vx	right_ground_force_vy	right_ground_force_vz	right_ground_force_px	right_ground_force_py	right_ground_force_pz	right_ground_torque_x	right_ground_torque_y	right_ground_torque_z	left_ground_force_vx	left_ground_force_vy	left_ground_force_vz	left_ground_force_px	left_ground_force_py	left_ground_force_pz	left_ground_torque_x	left_ground_torque_y	left_ground_torque_z
6.585000	-0.942414	284.662000	47.509500	0.198602	0.000000	-1.426580	-22.610000	0.433225	-0.324104	-4.456330	245.634000	-39.165200	0.207174	0.000000	-0.987650	20.856400	-2.846170	2.320960
6.590000	-1.603920	285.450000	47.439900	0.198743	0.000000	-1.425930	-22.859100	0.402545	-0.280579	-5.476920	250.039000	-39.193100	0.207133	0.000000	-0.988281	21.400900	-2.784180	2.336960
6.595000	-1.738190	286.266000	47.912700	0.199820	0.000000	-1.426300	-22.818200	0.357898	0.030040	-6.366130	252.850000	-39.503800	0.207489	0.000000	-0.987928	21.561000	-2.613360	2.432660
6.600000	-1.780770	284.176000	48.677800	0.200432	0.000000	-1.425710	-22.820100	0.225265	0.189373	-7.738960	255.229000	-39.573300	0.208294	0.000000	-0.986744	21.482300	-2.596980	2.670870
6.605000	-2.527780	286.244000	48.370200	0.200026	0.000000	-1.426360	-22.803200	0.436775	0.115515	-7.818250	255.923000	-39.907000	0.209092	0.000000	-0.987311	21.689700	-2.666860	2.901980
6.610000	-2.867210	285.304000	48.877100	0.200808	0.000000	-1.425830	-22.880700	0.497790	0.361995	-7.977650	258.862000	-40.458400	0.208980	0.000000	-0.988131	22.150700	-2.642920	2.900530
6.615000	-3.609450	287.683000	48.431900	0.201676	0.000000	-1.425310	-23.223700	0.564624	0.639771	-8.073930	262.168000	-41.281800	0.209569	0.000000	-0.987586	22.292200	-2.698520	3.103300
6.620000	-4.746050	289.638000	47.479700	0.201965	0.000000	-1.426550	-23.028800	0.564693	0.738901	-8.925020	267.325000	-41.334500	0.209935	0.000000	-0.986404	22.423400	-2.660840	3.245940
6.625000	-5.448640	286.119000	47.068300	0.201340	0.000000	-1.425130	-23.160600	0.588090	0.563156	-8.528030	269.859000	-42.418800	0.209146	0.000000	-0.986872	22.755700	-2.761850	3.075710
6.630000	-5.910850	284.905000	46.976400	0.201823	0.000000	-1.424700	-23.188200	0.723799	0.732062	-8.667280	273.119000	-43.210600	0.209506	0.000000	-0.988016	23.347200	-2.880070	3.233580
6.635000	-5.856920	285.571000	46.567600	0.201183	0.000000	-1.424440	-23.320200	0.831754	0.560379	-7.888320	277.100000	-43.342900	0.209456	0.000000	-0.987097	23.415300	-2.859230	3.235270
6.640000	-5.974200	286.014000	46.418500	0.202011	0.000000	-1.424480	-23.349800	1.062200	0.841815	-8.555200	280.273000	-43.855400	0.210297	0.000000	-0.987630	23.846900	-2.998480	3.539010
6.645000	-6.164620	290.066000	46.866600	0.201545	0.000000	-1.424480	-23.681500	1.081760	0.715954	-9.580130	280.484000	-43.351000	0.209158	0.000000	-0.988072	24.005300	-3.001040	3.219800
6.650000	-6.295960	289.069000	46.622800	0.202001	0.000000	-1.424400	-23.623800	1.090760	0.852283	-9.456960	283.994000	-43.677500	0.210526	0.000000	-0.987045	24.014200	-3.130210	3.663750
6.655000	-7.090270	293.981000	46.030100	0.201993	0.000000	-1.425070	-23.838600	1.214090	0.880066	-9.562020	284.616000	-43.160800	0.209570	0.000000	-0.986959	24.043900	-3.186050	3.391300
6.660000	-7.591110	295.132000	45.561900	0.203201	0.000000	-1.424750	-24.028600	1.154780	1.240750	-10.435500	287.728000	-43.637300	0.209161	0.000000	-0.986430	24.169300	-3.260550	3.322910
6.665000	-8.440520	296.754000	44.420200	0.203004	0.000000	-1.424330	-24.298400	1.328360	1.213560	-10.727800	288.553000	-44.264000	0.209358	0.000000	-0.986296	24.204800	-3.247800	3.399180
6.670000	-9.552100	299.224000	43.738100	0.203618	0.000000	-1.425270	-24.228700	1.320790	1.411650	-11.152200	288.664000	-44.184000	0.209097	0.000000	-0.985384	23.960000	-3.306850	3.334270
6.675000	-9.538230	300.173000	43.350700	0.203340	0.000000	-1.424370	-24.581600	1.511100	1.354270	-10.446600	290.313000	-44.287600	0.208322	0.000000	-0.984798	23.917200	-3.510110	3.138180
6.680000	-9.642130	305.173000	43.109900	0.203500	0.000000	-1.424990	-24.800100	1.514380	1.413800	-10.113900	291.072000	-45.467700	0.207693	0.000000	-0.985085	24.060600	-3.650830	2.993740
6.685000	-10.367300	309.106000	42.965100	0.204036	0.000000	-1.425000	-25.125900	1.618980	1.613410	-9.867140	294.397000	-45.908500	0.208504	0.000000	-0.985421	24.429000	-3.705820	3.269110
6.690000	-10.512500	312.323000	42.785400	0.203524	0.000000	-1.424750	-25.468400	1.775080	1.481470	-10.484100	296.989000	-45.859800	0.207889	0.000000	-0.984411	24.354500	-3.779550	3.114140
6.695000	-10.814500	311.765000	42.936100	0.204160	0.000000	-1.424280	-25.577300	1.841780	1.696850	-10.247000	298.040000	-46.466900	0.207965	0.000000	-0.984079	24.340200	-3.905590	3.169920
6.700000	-10.549700	312.844000	42.517200	0.203304	0.000000	-1.425400	-25.313100	1.933000	1.431150	-9.645040	301.468000	-46.736100	0.206969	0.000000	-0.984640	24.778000	-4.077990	2.905590
6.705000	-10.123300	311.716000	42.506000	0.202784	0.000000	-1.425430	-25.215600	2.161420	1.290010	-9.551070	303.630000	-46.823700	0.206866	0.000000	-0.984096	24.787700	-4.135130	2.891420
6.710000	-9.501940	312.589000	43.036600	0.201916	0.000000	-1.425450	-25.275500	2.349080	1.038940	-9.512760	304.061000	-46.309300	0.207210	0.000000	-0.984121	24.833400	-4.256090	3.008750
